Format : AVI
Format/Info : Audio Video Interleave
Format profile : OpenDML
File size : 2.05 GiB
Duration : 1h 33mn
Overall bit rate : 3 130 Kbps
Writing application : Lavf52.47.0

Video
ID : 0
Format : xvid
Codec ID : xvid
Duration : 1h 33mn
Bit rate : 2 800 Kbps
Width : 1 280 pixels
Height : 666 pixels
Display aspect ratio : 1.922
Frame rate : 25.000 fps
Bits/(Pixel*Frame) : 0.131
Stream size : 1.83 GiB (89%)

Audio
ID : 1
Format : AC-3
Format/Info : Audio Coding 3
Mode extension : CM (complete main)
Codec ID : 2000
Duration : 1h 33mn
Bit rate mode : Constant
Bit rate : 320 Kbps
Channel(s) : 2 channels
Channel positions : Front: L R
Sampling rate : 44.1 KHz
Bit depth : 16 bits
Stream size : 214 MiB (10%)
Alignment : Aligned on interleaves
Interleave, duration : 35 ms (0.87 video frame)

 
http://www.imdb.com/title/tt1542344/


127 Hours is the true story of mountain climber Aron Ralston's remarkable adventure to save himself after a fallen boulder crashes on his arm and traps him in an isolated canyon in Utah. Over the next five days Ralston examines his life and survives the elements to finally discover he has the courage and the wherewithal to extricate himself by any means necessary, scale a 65 foot wall and hike over eight miles before he is finally rescued. Throughout his journey, Ralston recalls friends, lovers, family, and the two hikers he met before his accident. Will they be the last two people he ever had the chance to meet?


Users: 8.1/10 (31,844 votes) 212 reviews | Critics: 243 reviews Metascore: 82/100 (based on 38 reviews from Metacritic.com)

127 Hours 2010 720p BluRay x264-Felony - Thanks